HIERARCHY
ROOT simHips
{
  OFFSET 0.556208 99.7976 -1.1667
  CHANNELS 6 Xposition Yposition Zposition Zrotation Xrotation Yrotation
  JOINT simSpine
  {
    OFFSET -0.000355721 21.3001 -0.016921
    CHANNELS 3 Zrotation Xrotation Yrotation
    JOINT simLeftArm
    {
      OFFSET 13.5181 21.3012 0
      CHANNELS 3 Zrotation Xrotation Yrotation
      JOINT simLeftForeArm
      {
        OFFSET 24.5783 0 0
        CHANNELS 3 Zrotation Xrotation Yrotation
        JOINT simLeftHand
        {
          OFFSET 24.5783 0 0
          CHANNELS 3 Zrotation Xrotation Yrotation
          End Site
          {
            OFFSET 7.32568 1.52588e-05 0.0169305
          }
        }
      }
    }
    JOINT simHead
    {
      OFFSET 0 27.4458 -0.00489235
      CHANNELS 3 Zrotation Xrotation Yrotation
      End Site
      {
        OFFSET 0 0 0
      }
    }
    JOINT simRightArm
    {
      OFFSET -13.5174 21.3012 0
      CHANNELS 3 Zrotation Xrotation Yrotation
      JOINT simRightForeArm
      {
        OFFSET -24.5783 0 0
        CHANNELS 3 Zrotation Xrotation Yrotation
        JOINT simRightHand
        {
          OFFSET -24.5783 0 0
          CHANNELS 3 Zrotation Xrotation Yrotation
          End Site
          {
            OFFSET -7.32568 1.52588e-05 0.0169305
          }
        }
      }
    }
  }
  JOINT simRightUpLeg
  {
    OFFSET -8.44614 -9.41038 0.835684
    CHANNELS 3 Zrotation Xrotation Yrotation
    JOINT simRightLeg
    {
      OFFSET 0 -40.9639 0
      CHANNELS 3 Zrotation Xrotation Yrotation
      JOINT simRightFoot
      {
        OFFSET 0 -40.9639 0
        CHANNELS 3 Zrotation Xrotation Yrotation
        End Site
        {
          OFFSET 0.50614 -9.67405 14.6709
        }
      }
    }
  }
  JOINT simLeftUpLeg
  {
    OFFSET 8.44614 -9.41038 0.835684
    CHANNELS 3 Zrotation Xrotation Yrotation
    JOINT simLeftLeg
    {
      OFFSET 0 -40.9639 0
      CHANNELS 3 Zrotation Xrotation Yrotation
      JOINT simLeftFoot
      {
        OFFSET 0 -40.9639 0
        CHANNELS 3 Zrotation Xrotation Yrotation
        End Site
        {
          OFFSET -0.50614 -9.67405 14.6709
        }
      }
    }
  }
}
MOTION
Frames:	28
Frame Time:	0.0333333
0.556208 99.7976 -1.1667 -3.74505 -3.40385 -5.45257 2.72601 3.36323 1.37959 -80.2413 37.2304 -1.96273 -0.000274572 -2.31192e-06 -1.45327 -7.37169 -32.8378 -5.38344 3.48484 0.367821 1.82686 79.2373 46.509 3.16217 0.000180204 4.96735e-07 6.68959 7.23399 -20.0622 1.96934 3.9694 1.15754 -10.4658 -3.27323 9.32448 -9.27758 3.35454 -6.42496 -1.38274 10.0507 -7.72636 16.39 4.32076 15.3759 0.901176 -7.27614 -2.1728 0.46483 
0.429266 99.2879 -1.12741 -3.61453 -4.04338 -5.24005 3.11357 3.31854 0.989626 -79.3932 35.7332 -3.73548 -0.000274539 -2.31253e-06 -0.613719 -7.53558 -37.7855 -3.93451 3.92414 0.577275 3.14859 78.4738 42.5979 2.9011 0.000180178 4.93007e-07 9.68825 11.6302 -17.5444 0.981512 3.3563 -1.24207 -10.207 -3.40565 15.6984 -9.15936 3.93173 -9.70316 -1.61043 10.9644 -10.5952 12.9937 6.85005 24.9662 1.09354 -5.71831 -4.05987 3.25971 
0.505877 98.6667 -1.14119 -3.56539 -4.8741 -4.8402 3.83464 3.61597 0.0592153 -78.3087 34.968 -6.48857 -0.000274517 -2.31266e-06 -0.0820815 -6.50192 -40.5834 -2.55373 4.23584 0.458451 4.64562 76.6856 38.3766 3.6496 0.00018015 4.87428e-07 12.9455 15.7786 -15.3031 0.96641 3.05428 -2.95493 -9.8147 -3.98246 20.9745 -8.6863 4.68711 -12.3863 -2.44727 11.2198 -13.486 9.04972 9.59324 34.4104 1.19755 -4.49883 -4.95497 4.0598 
0.758819 98.0834 -1.19823 -3.45043 -5.8485 -4.57416 4.63414 4.31427 -1.14933 -76.6776 35.3774 -10.2518 -0.000274514 -2.31267e-06 -9.06757e-06 -5.46632 -41.637 -2.44785 4.5086 0.00070157 6.37162 73.9456 34.1706 5.76658 0.000180121 4.7971e-07 16.4331 19.1291 -13.5497 1.95609 2.81206 -3.9311 -9.35483 -4.83109 24.9423 -8.12645 5.55215 -14.341 -3.20744 11.227 -15.3571 4.97822 10.6208 41.7086 1.61144 -4.95446 -7.25222 1.45192 
1.13064 97.7111 -1.24842 -3.17123 -6.77863 -4.89328 5.20236 5.32253 -2.11024 -74.437 36.8253 -14.5677 -0.000274514 -2.31267e-06 -2.03109e-06 -5.6238 -41.6675 -4.29214 4.90574 -0.648206 8.24956 70.6655 30.4585 9.42101 0.000180089 4.69078e-07 20.2992 21.8373 -12.1716 3.4382 2.14612 -4.2101 -8.8927 -5.18789 27.3841 -7.79534 6.17311 -15.4715 -3.26566 11.0584 -15.7468 1.53449 9.98536 45.0922 2.27806 -8.37685 -10.6269 -4.19518 
1.54036 97.7362 -1.23997 -2.68013 -7.42549 -6.22267 5.21389 6.43922 -2.31996 -72.1819 38.3728 -18.0321 -0.000274616 -2.31041e-06 -2.53307 -6.81396 -40.637 -7.21457 5.63248 -1.22872 10.2167 67.4463 27.7709 14.4455 0.000180052 4.53953e-07 24.8172 24.4912 -10.8658 4.77204 0.707838 -3.83128 -8.37659 -4.33387 27.8778 -8.09221 6.18907 -15.5605 -2.1452 10.9264 -14.595 -0.554792 8.42862 43.6597 2.8865 -13.61 -13.23 -10.5757 
1.95363 98.201 -1.16806 -2.00932 -7.66135 -8.86407 4.48806 7.49619 -1.71729 -71.1553 38.6817 -18.8717 -0.000274905 -2.27927e-06 -9.7491 -7.48032 -37.607 -9.19879 6.78819 -1.59426 12.5679 64.631 26.5913 20.5399 0.00018001 4.32272e-07 30.197 27.188 -9.54405 5.89053 -1.4219 -2.95577 -7.5952 -2.35796 26.1761 -8.03461 5.32054 -14.5068 -0.76036 10.5983 -11.9864 -1.00611 7.49858 37.6791 2.05843 -18.091 -13.8797 -15.4139 
2.41237 98.8793 -1.04209 -1.23873 -7.48926 -12.9735 3.09355 8.36819 -0.684539 -72.257 36.3671 -16.6649 -0.000275356 -2.15386e-06 -21.3565 -6.69793 -31.7354 -9.00296 8.24126 -1.7708 15.961 62.1511 27.2409 27.4976 0.000179965 4.02454e-07 36.4204 29.3037 -8.42257 7.27912 -3.87852 -2.24329 -6.38092 -0.0273426 23.1835 -7.74066 4.10106 -12.5824 1.34852 9.76436 -8.22314 -0.0578551 7.6597 28.7556 -0.531638 -19.9454 -12.0795 -18.5327 
3.02301 99.4189 -0.806018 -0.597626 -6.88772 -18.4954 1.50218 8.92802 0.357004 -74.5434 30.4531 -13.3883 -0.000275854 -1.88488e-06 -35.4102 -5.5208 -22.9574 -7.38281 9.67285 -1.76624 20.8361 59.6803 29.7374 35.2361 -0.00119553 3.64646e-07 43.19 30.1031 -7.77136 9.4009 -6.32703 -3.15485 -5.04029 2.11118 21.5432 -8.41261 4.00441 -10.3117 5.43794 8.70407 -4.19801 1.76568 8.016 19.7799 -3.22448 -18.4634 -8.30378 -20.7357 
3.85752 99.591 -0.365734 -0.29496 -5.76138 -25.1158 0.283473 9.13035 1.35687 -75.9586 21.3292 -11.6177 -0.000276263 -1.51334e-06 -49.128 -5.44587 -12.292 -5.96162 10.7725 -1.47935 26.8141 56.7772 33.6824 43.7867 -0.0230031 3.21391e-07 50.0139 29.3162 -7.7159 12.259 -8.57718 -7.1749 -4.49147 4.23708 24.1194 -10.7374 5.50241 -7.72387 11.5417 7.65214 -1.1459 4.02518 8.47025 13.8238 -4.44427 -14.9785 -5.03174 -21.5082 
4.89165 99.5207 0.31099 -0.38612 -4.11202 -32.2814 -0.256792 9.08857 2.57698 -75.3493 10.7493 -12.271 -0.000276516 -1.15747e-06 -59.9674 -6.56742 -1.48149 -5.77731 11.3875 -0.892228 32.8075 52.9283 38.0784 53.2327 -0.000440788 2.75921e-07 56.5171 27.2397 -8.15691 15.3527 -10.6976 -12.0836 -5.40294 7.1013 27.447 -12.9109 8.48798 -4.1235 17.2335 7.24861 1.26899 6.44844 8.1416 9.8265 -3.55701 -12.2669 -3.10913 -19.4433 
6.08763 99.2328 1.17612 -0.850914 -2.15879 -39.1874 -0.100484 9.00304 4.13212 -72.593 0.708597 -14.7465 -0.000276634 -9.23871e-07 -66.4541 -7.60261 7.67624 -7.00563 11.5036 -0.207991 37.6965 48.4227 41.6602 63.1272 4.0195e-05 2.30911e-07 62.5036 24.5501 -8.73997 17.971 -13.1647 -16.9142 -7.55078 10.7577 30.7093 -14.7281 18.1052 2.27739 18.2317 8.05829 1.42945 8.59781 7.24382 10.799 -3.04166 -12.2045 -5.46725 -15.239 
7.35553 98.4904 2.04766 -1.41788 -0.510783 -44.781 0.245301 9.09659 5.70148 -68.118 -7.32166 -18.0793 -0.000276667 -8.42816e-07 -68.6272 -7.17585 13.6103 -9.11106 11.1772 0.328248 40.8242 44.9362 43.5526 71.651 4.01747e-05 1.86952e-07 68.0499 21.9728 -9.10447 19.7101 -15.7234 -21.2608 -9.96722 12.8417 35.1441 -17.2361 28.6695 6.35179 12.4749 9.54836 -0.613628 10.3611 6.35238 16.7182 -3.82667 -12.9718 -11.2457 -11.2073 
8.39728 97.1897 2.63038 -1.65654 -0.0858398 -48.0628 -0.0923996 9.51985 6.7069 -63.2047 -12.7071 -21.8286 -0.000276659 -8.64724e-07 -68.0432 -5.21291 15.5201 -11.1183 10.4844 0.750135 42.0484 44.4924 43.9339 76.532 4.01596e-05 1.43925e-07 73.2755 19.8742 -9.29691 20.798 -18.5218 -26.3868 -12.1949 14.1281 45.2323 -20.0618 29.4431 -0.644924 5.3885 10.3622 -4.12346 11.7761 6.32549 25.5724 -5.54282 -12.971 -17.4226 -9.00488 
9.21004 95.9906 2.87245 -2.0807 -0.443595 -48.7256 -0.368152 10.1812 6.81963 -59.6294 -15.8648 -25.9127 -0.000276645 -8.97437e-07 -67.1666 -3.02638 14.2154 -12.3042 9.55055 1.39466 41.641 47.3607 43.3445 76.9636 4.01488e-05 1.0097e-07 78.3529 18.0289 -9.67617 21.7641 -19.9925 -28.5845 -13.4412 9.72366 53.7542 -17.8217 29.6172 -6.8399 -3.09834 10.7935 -7.12972 12.46 6.82913 32.9125 -7.26126 -12.2391 -21.2504 -8.58692 
9.69567 95.0905 2.79824 -2.74489 -1.02806 -47.585 -0.188051 10.7684 6.26779 -58.2997 -18.0316 -29.9751 0.00150922 -8.60203e-07 -68.1639 -2.10417 11.7155 -12.6031 8.63918 2.49444 40.2107 51.9769 42.0577 73.9555 4.01417e-05 5.63808e-08 83.5273 15.8951 -10.2727 22.7835 -19.6896 -26.4142 -13.78 -1.68691 56.5423 -8.49292 25.0528 -7.41131 -11.7121 11.3355 -8.93586 12.3165 7.17256 37.4674 -8.50123 -11.8304 -23.2328 -9.24414 
9.89916 94.3802 2.45147 -3.51952 -1.34154 -46.0845 0.463647 11.0088 5.6032 -58.771 -20.5093 -33.4705 0.0159946 -7.19585e-07 -71.8715 -3.16274 9.73182 -12.1541 8.02528 3.81533 38.5447 56.4257 40.3565 69.2791 4.01386e-05 9.42475e-09 88.9202 13.2239 -10.5586 23.5312 -18.5441 -21.1732 -14.052 -11.8269 53.8547 -0.660641 20.2187 -2.57167 -15.9933 12.3392 -10.3527 12.0451 7.48639 40.7136 -9.64242 -11.7121 -24.4224 -10.1345 
9.9243 93.6035 1.71653 -3.97698 -1.39925 -45.3271 0.997644 10.855 5.296 -60.0206 -24.0396 -36.1657 -0.00020562 -4.92429e-07 -77.7061 -5.97255 8.87613 -11.0105 7.70467 4.8253 37.3177 59.586 38.583 64.4429 4.01399e-05 -3.75111e-08 94.3013 10.4067 -10.0409 23.6827 -17.9973 -15.3943 -14.4823 -15.8148 50.2586 1.93307 17.4902 1.36296 -14.3184 13.9301 -11.9826 12.554 7.36134 43.781 -10.4478 -11.7499 -25.3246 -11.2272 
9.90816 92.6336 0.508203 -3.83702 -1.37893 -45.4517 1.07122 10.4434 5.39494 -61.4801 -28.5148 -38.2932 -2.46126e-05 -2.26669e-07 -84.3753 -9.65189 8.90404 -9.45506 7.38968 5.17215 36.8234 61.2139 36.806 60.3916 4.01448e-05 -7.94726e-08 99.1431 8.23283 -8.85019 23.3307 -18.7495 -10.9674 -14.898 -15.5447 47.4458 2.79653 17.7641 0.749807 -9.95756 15.8991 -14.0857 14.0872 6.73011 47.0529 -10.713 -11.9203 -25.9743 -12.6976 
9.97908 91.467 -1.05599 -3.19622 -1.39362 -45.9074 0.878401 9.98586 5.61131 -63.0794 -33.296 -40.2197 -2.46236e-05 2.24526e-08 -90.5563 -13.1123 9.12108 -8.11067 6.82517 4.91532 36.9302 61.6013 34.8983 57.5574 4.01511e-05 -1.11803e-07 102.917 7.22008 -7.62243 22.826 -19.7191 -8.55706 -15.8579 -14.9343 44.9575 3.87986 21.0734 -3.67533 -5.71829 17.82 -16.6993 16.0349 6.11532 50.5144 -10.8575 -12.1883 -26.4172 -14.1638 
10.201 90.0741 -2.78321 -2.32234 -1.5541 -46.2956 0.637733 9.68853 5.75743 -64.965 -37.6577 -41.9745 -2.46132e-05 2.20803e-07 -95.4787 -15.5645 8.70815 -7.41139 6.00282 4.43777 37.3269 61.3061 32.9469 55.9531 4.01563e-05 -1.3234e-07 105.344 7.20797 -6.9467 22.4269 -21.0566 -8.54497 -17.5745 -14.611 45.7457 3.30136 24.7775 -12.1491 -1.33801 19.1961 -19.7758 17.5502 6.28841 54.2272 -11.5192 -12.6091 -26.9262 -15.0243 
10.5683 88.5049 -4.48798 -1.50252 -1.90561 -46.7516 0.363892 9.63968 5.95126 -67.1423 -41.1277 -43.1783 -2.45947e-05 3.6493e-07 -99.079 -16.8738 7.21057 -7.16572 5.08723 4.28152 37.8037 60.9062 31.3636 55.2986 4.0159e-05 -1.41673e-07 106.455 7.62252 -6.97742 22.191 -23.109 -10.8813 -19.452 -14.3818 49.9054 3.24017 25.6017 -19.3005 1.92673 19.8375 -22.9449 18.221 7.56506 58.0345 -12.7453 -13.351 -27.6699 -15.1838 
11.0084 87.0567 -5.99646 -1.00321 -2.32209 -47.5259 0.0752098 9.74562 6.38553 -69.4217 -43.4217 -43.4385 -2.45758e-05 4.68348e-07 -101.684 -17.3521 5.00953 -6.90822 4.22313 4.92568 38.2616 60.7621 30.5149 55.107 4.01592e-05 -1.425e-07 106.554 8.00384 -7.41949 22.0393 -25.0348 -13.6774 -20.6675 -14.3756 54.5286 4.10078 24.7458 -24.7877 3.69386 20.0443 -25.5048 18.2549 9.50415 61.2548 -14.0835 -14.434 -28.3858 -14.9894 
11.3732 86.0449 -7.26189 -0.865382 -2.73334 -48.4424 -0.259285 9.83511 7.01631 -71.5131 -44.2927 -42.7538 -2.45595e-05 5.41149e-07 -103.532 -17.2865 3.17818 -6.50621 3.42266 6.45529 38.5498 60.9002 30.3142 54.836 4.01581e-05 -1.38931e-07 106.128 8.20197 -7.76667 21.8283 -25.9512 -15.941 -20.8442 -14.8633 57.9339 4.96465 24.0082 -28.2707 4.53595 20.1841 -26.989 18.1225 11.2392 63.2385 -15.1243 -15.5271 -28.683 -14.7439 
11.5615 85.5782 -8.32003 -0.929525 -3.17902 -48.9021 -0.647637 9.81978 7.50051 -73.074 -43.6763 -41.4653 -2.45487e-05 5.84409e-07 -104.637 -16.8411 2.5954 -6.19611 2.6031 8.38761 38.4652 61.1131 30.2958 54.1951 4.01571e-05 -1.35294e-07 105.695 8.22555 -7.64327 21.4192 -26.0693 -17.5063 -20.4356 -15.9557 60.1612 5.75856 23.8208 -28.9745 4.81031 20.3105 -27.5185 18.0101 12.1038 63.8392 -15.657 -16.2529 -28.3517 -14.6358 
11.6174 85.5149 -9.1928 -0.973545 -3.69803 -48.4918 -1.02807 9.72319 7.53906 -73.8728 -41.9552 -40.013 -2.45445e-05 6.00261e-07 -105.044 -16.1991 3.13691 -6.17379 1.69014 9.98105 37.9491 61.1616 30.0841 53.3346 4.01568e-05 -1.34288e-07 105.575 8.11735 -7.06349 20.7737 -25.9119 -17.8629 -20.2828 -16.7252 61.0438 5.62097 23.8705 -29.1453 5.00189 20.2226 -27.6368 17.7947 12.1058 63.4779 -15.7415 -16.4865 -27.5065 -14.7493 
11.6468 85.5998 -9.87378 -0.840833 -4.25426 -47.4584 -1.34496 9.59893 7.22434 -73.9908 -39.9173 -38.8032 -2.45447e-05 5.99199e-07 -105.016 -15.6078 3.89548 -6.36259 0.668673 10.8188 37.2053 60.8951 29.6757 52.6847 4.01573e-05 -1.35822e-07 105.758 7.96696 -6.38438 20.0127 -26.176 -17.5935 -20.6963 -16.8823 61.4015 5.08925 23.8704 -29.1668 5.08568 19.8306 -27.8031 17.454 11.695 62.8201 -15.6842 -16.3378 -26.527 -14.9356 
11.7236 85.6723 -10.336 -0.56276 -4.72982 -46.4784 -1.56166 9.47704 6.94012 -73.7637 -38.2893 -37.984 -2.45451e-05 5.97929e-07 -104.984 -15.2845 4.17774 -6.56458 -0.410976 11.0639 36.5633 60.295 29.2935 52.5807 4.01579e-05 -1.37924e-07 106.008 7.89547 -5.95081 19.346 -26.7969 -17.3255 -21.3079 -16.725 61.6489 4.67602 23.7818 -29.1684 5.09009 19.3488 -28.0682 17.2145 11.1865 62.3248 -15.6641 -15.9766 -25.7762 -14.9769 
